<svg xmlns="http://www.w3.org/2000/svg" xmlns:xlink="http://www.w3.org/1999/xlink" width="500" zoomAndPan="magnify" viewBox="0 0 375 374.999991" height="500" preserveAspectRatio="xMidYMid meet" version="1.0"><defs><g/><clipPath id="f65fdce205"><path d="M 53.757812 147 L 68 147 L 68 188 L 53.757812 188 Z M 53.757812 147 " clip-rule="nonzero"/></clipPath><clipPath id="df02c217b0"><path d="M 113 180 L 175.257812 180 L 175.257812 217 L 113 217 Z M 113 180 " clip-rule="nonzero"/></clipPath><clipPath id="0c3a079b67"><path d="M 58.257812 150 L 72 150 L 72 188 L 58.257812 188 Z M 58.257812 150 " clip-rule="nonzero"/></clipPath></defs><rect x="-37.5" width="450" fill="#ffffff" y="-37.499999" height="449.999989" fill-opacity="1"/><rect x="-37.5" width="450" fill="#ffffff" y="-37.499999" height="449.999989" fill-opacity="1"/><g fill="#2455a1" fill-opacity="1"><g transform="translate(116.7313, 174.979025)"><g><path d="M 19.1875 -17.25 C 19.1875 -16.769531 18.164062 -15.914062 16.125 -14.6875 C 14.082031 -13.457031 12.578125 -12.53125 11.609375 -11.90625 C 10.640625 -11.28125 10.15625 -10.894531 10.15625 -10.75 C 10.34375 -10.332031 10.539062 -9.625 10.75 -8.625 C 10.957031 -7.632812 11.035156 -6.5625 10.984375 -5.40625 C 10.929688 -4.25 10.554688 -3.21875 9.859375 -2.3125 C 9.171875 -1.40625 8.015625 -0.851562 6.390625 -0.65625 C 4.765625 -0.53125 3.3125 -0.78125 2.03125 -1.40625 C 0.757812 -2.03125 -0.0351562 -2.929688 -0.359375 -4.109375 C -0.691406 -5.285156 -0.296875 -6.664062 0.828125 -8.25 C 1.554688 -9.132812 2.441406 -9.90625 3.484375 -10.5625 C 3.835938 -10.789062 4.203125 -11.039062 4.578125 -11.3125 C 3.335938 -12.664062 2.160156 -14.046875 1.046875 -15.453125 C -0.0664062 -16.867188 -0.785156 -18.132812 -1.109375 -19.25 C -1.441406 -20.539062 -1.222656 -21.753906 -0.453125 -22.890625 C 0.316406 -24.023438 1.648438 -24.6875 3.546875 -24.875 C 4.472656 -24.96875 5.335938 -24.921875 6.140625 -24.734375 C 6.953125 -24.554688 7.707031 -24.160156 8.40625 -23.546875 C 8.550781 -23.398438 8.65625 -23.238281 8.71875 -23.0625 C 8.789062 -22.882812 8.757812 -22.660156 8.625 -22.390625 C 8.394531 -21.960938 8.050781 -21.75 7.59375 -21.75 C 7.25 -21.75 6.921875 -21.789062 6.609375 -21.875 C 6.273438 -22.019531 5.96875 -22.160156 5.6875 -22.296875 C 5.5 -22.398438 5.320312 -22.492188 5.15625 -22.578125 C 4.539062 -22.804688 4.066406 -22.769531 3.734375 -22.46875 C 3.410156 -22.175781 3.25 -21.726562 3.25 -21.125 C 3.289062 -20.039062 3.734375 -18.890625 4.578125 -17.671875 C 5.421875 -16.453125 6.253906 -15.328125 7.078125 -14.296875 C 7.421875 -13.929688 7.707031 -13.582031 7.9375 -13.25 C 8.164062 -13.019531 8.773438 -13.054688 9.765625 -13.359375 C 10.753906 -13.660156 12.570312 -14.503906 15.21875 -15.890625 C 17.863281 -17.285156 19.1875 -17.738281 19.1875 -17.25 Z M 5.0625 -3.03125 C 5.664062 -3.070312 6.0625 -3.410156 6.25 -4.046875 C 6.445312 -4.679688 6.519531 -5.375 6.46875 -6.125 C 6.414062 -6.882812 6.367188 -7.457031 6.328125 -7.84375 C 6.242188 -8.070312 6.09375 -8.21875 5.875 -8.28125 C 5.664062 -8.34375 5.46875 -8.332031 5.28125 -8.25 C 4.582031 -7.707031 4.066406 -7.015625 3.734375 -6.171875 C 3.410156 -5.328125 3.441406 -4.585938 3.828125 -3.953125 C 3.953125 -3.722656 4.117188 -3.519531 4.328125 -3.34375 C 4.535156 -3.175781 4.78125 -3.070312 5.0625 -3.03125 Z M 5.0625 -3.03125 "/></g></g></g><g fill="#2455a1" fill-opacity="1"><g transform="translate(133.771414, 174.979025)"><g><path d="M 20.171875 -15.140625 C 20.566406 -15.960938 20.835938 -16.34375 20.984375 -16.28125 C 21.140625 -16.21875 21.179688 -15.882812 21.109375 -15.28125 C 21.035156 -14.6875 20.898438 -14.007812 20.703125 -13.25 C 20.429688 -12.09375 19.957031 -10.75 19.28125 -9.21875 C 18.613281 -7.6875 17.867188 -6.300781 17.046875 -5.0625 C 15.816406 -3.332031 14.300781 -2.03125 12.5 -1.15625 C 10.695312 -0.28125 9.0625 -0.0625 7.59375 -0.5 C 6.132812 -0.945312 5.289062 -2.328125 5.0625 -4.640625 C 5.019531 -6.585938 5.1875 -8.71875 5.5625 -11.03125 C 5.6875 -12 5.820312 -12.945312 5.96875 -13.875 C 5.96875 -14.21875 5.882812 -14.476562 5.71875 -14.65625 C 5.550781 -14.832031 5.332031 -14.898438 5.0625 -14.859375 C 4.875 -14.859375 4.660156 -14.859375 4.421875 -14.859375 C 3.265625 -14.671875 2.085938 -14.691406 0.890625 -14.921875 C -0.546875 -15.347656 -1.378906 -16.0625 -1.609375 -17.0625 C -1.835938 -18.0625 -1.816406 -19.375 -1.546875 -21 C -1.398438 -22.15625 -0.96875 -23.019531 -0.25 -23.59375 C 0.46875 -24.175781 1.3125 -24.414062 2.28125 -24.3125 C 3.625 -24.1875 4.273438 -23.671875 4.234375 -22.765625 C 4.191406 -21.859375 3.941406 -20.890625 3.484375 -19.859375 C 3.054688 -18.992188 2.832031 -18.269531 2.8125 -17.6875 C 2.789062 -17.101562 3.285156 -16.898438 4.296875 -17.078125 C 4.523438 -17.140625 4.78125 -17.210938 5.0625 -17.296875 C 5.4375 -17.441406 5.863281 -17.570312 6.34375 -17.6875 C 6.832031 -17.800781 7.46875 -17.828125 8.25 -17.765625 C 9.175781 -17.722656 9.789062 -17.296875 10.09375 -16.484375 C 10.40625 -15.671875 10.539062 -14.65625 10.5 -13.4375 C 10.457031 -12.21875 10.34375 -10.972656 10.15625 -9.703125 C 9.914062 -8.117188 9.796875 -6.765625 9.796875 -5.640625 C 9.796875 -4.515625 10.125 -3.859375 10.78125 -3.671875 C 11.644531 -3.429688 12.9375 -4.210938 14.65625 -6.015625 C 16.375 -7.816406 18.210938 -10.859375 20.171875 -15.140625 Z M 20.171875 -15.140625 "/></g></g></g><g fill="#2455a1" fill-opacity="1"><g transform="translate(153.119367, 174.979025)"><g><path d="M 16.40625 -12.828125 C 15.75 -11.484375 14.632812 -9.988281 13.0625 -8.34375 C 11.5 -6.695312 9.722656 -5.648438 7.734375 -5.203125 C 5.742188 -4.765625 3.84375 -5.453125 2.03125 -7.265625 C 1.332031 -8.066406 0.816406 -8.988281 0.484375 -10.03125 C 0.160156 -11.082031 0.0390625 -12.113281 0.125 -13.125 C 0.125 -13.394531 0.125 -13.742188 0.125 -14.171875 C 0.125 -15.242188 0.171875 -16.484375 0.265625 -17.890625 C 0.359375 -19.304688 0.566406 -20.582031 0.890625 -21.71875 C 1.222656 -22.851562 1.738281 -23.539062 2.4375 -23.78125 C 4.4375 -24.28125 5.519531 -23.582031 5.6875 -21.6875 C 5.6875 -21.070312 5.664062 -20.460938 5.625 -19.859375 C 5.582031 -19.535156 5.5625 -19.238281 5.5625 -18.96875 C 5.519531 -18.082031 5.476562 -17.195312 5.4375 -16.3125 C 5.4375 -15.613281 5.40625 -14.921875 5.34375 -14.234375 C 5.300781 -11.171875 5.984375 -9.347656 7.390625 -8.765625 C 8.804688 -8.191406 10.421875 -8.8125 12.234375 -10.625 C 14.046875 -12.4375 15.226562 -13.941406 15.78125 -15.140625 C 16.34375 -16.347656 16.75 -16.601562 17 -15.90625 C 17.257812 -15.207031 17.0625 -14.179688 16.40625 -12.828125 Z M 5.28125 -30.28125 C 5.007812 -30.050781 4.675781 -29.90625 4.28125 -29.84375 C 3.894531 -29.78125 3.550781 -29.8125 3.25 -29.9375 C 3.019531 -30.125 2.875 -30.367188 2.8125 -30.671875 C 2.75 -30.984375 2.71875 -31.351562 2.71875 -31.78125 C 2.71875 -31.863281 2.738281 -31.945312 2.78125 -32.03125 C 2.820312 -32.40625 2.914062 -32.785156 3.0625 -33.171875 C 3.488281 -34.179688 4.363281 -34.644531 5.6875 -34.5625 C 6.15625 -34.5 6.519531 -34.304688 6.78125 -33.984375 C 7.039062 -33.671875 7.097656 -33.300781 6.953125 -32.875 C 6.640625 -31.84375 6.082031 -30.976562 5.28125 -30.28125 Z M 5.28125 -30.28125 "/></g></g></g><g fill="#2455a1" fill-opacity="1"><g transform="translate(168.641995, 174.979025)"><g><path d="M 23.359375 -16.53125 C 24.941406 -16.957031 25.578125 -16.9375 25.265625 -16.46875 C 24.960938 -16.007812 23.9375 -15.546875 22.1875 -15.078125 C 20.882812 -14.742188 19.757812 -14.578125 18.8125 -14.578125 C 17.863281 -14.578125 17 -14.878906 16.21875 -15.484375 C 16.03125 -14.835938 15.84375 -14.207031 15.65625 -13.59375 C 15.269531 -12.351562 14.898438 -11.171875 14.546875 -10.046875 C 14.078125 -8.429688 13.398438 -6.90625 12.515625 -5.46875 C 11.773438 -4.269531 10.800781 -3.457031 9.59375 -3.03125 C 8.382812 -2.613281 7.195312 -2.625 6.03125 -3.0625 C 4.875 -3.507812 3.925781 -4.40625 3.1875 -5.75 C 2.257812 -7.6875 1.640625 -9.722656 1.328125 -11.859375 C 0.628906 -15.015625 0.207031 -18.21875 0.0625 -21.46875 C 0.0195312 -22.207031 0.0390625 -22.925781 0.125 -23.625 C 0.269531 -24.550781 0.847656 -25.015625 1.859375 -25.015625 C 2.617188 -24.960938 3.078125 -24.507812 3.234375 -23.65625 C 3.398438 -22.8125 3.484375 -21.945312 3.484375 -21.0625 C 3.484375 -20.71875 3.503906 -20.429688 3.546875 -20.203125 C 3.546875 -19.890625 3.648438 -18.84375 3.859375 -17.0625 C 4.066406 -15.28125 4.378906 -13.375 4.796875 -11.34375 C 5.222656 -9.320312 5.734375 -7.78125 6.328125 -6.71875 C 6.929688 -5.65625 7.644531 -5.679688 8.46875 -6.796875 C 9.269531 -7.992188 9.832031 -9.289062 10.15625 -10.6875 C 10.945312 -13.46875 11.691406 -16.25 12.390625 -19.03125 C 12.660156 -20.34375 13.1875 -21.523438 13.96875 -22.578125 C 14.8125 -23.609375 15.910156 -23.859375 17.265625 -23.328125 C 17.578125 -23.242188 17.828125 -23.085938 18.015625 -22.859375 C 18.210938 -22.628906 18.28125 -22.375 18.21875 -22.09375 C 18.164062 -21.757812 18.097656 -21.414062 18.015625 -21.0625 C 17.785156 -20.363281 17.613281 -19.664062 17.5 -18.96875 C 17.382812 -18.269531 17.421875 -17.734375 17.609375 -17.359375 C 17.921875 -16.890625 18.675781 -16.566406 19.875 -16.390625 C 21.082031 -16.210938 22.242188 -16.257812 23.359375 -16.53125 Z M 23.359375 -16.53125 "/></g></g></g><g fill="#2455a1" fill-opacity="1"><g transform="translate(192.068198, 174.979025)"><g><path d="M 35.765625 -16.25 C 35.191406 -14.476562 34.046875 -12.445312 32.328125 -10.15625 C 30.609375 -7.875 28.460938 -6.40625 25.890625 -5.75 C 23.316406 -5.101562 21.09375 -5.191406 19.21875 -6.015625 C 17.34375 -6.847656 16.3125 -9.078125 16.125 -12.703125 C 14 -8.578125 11.96875 -5.929688 10.03125 -4.765625 C 8.101562 -3.609375 6.097656 -3.171875 4.015625 -3.453125 C 1.648438 -3.828125 0.0507812 -4.738281 -0.78125 -6.1875 C -1.613281 -7.644531 -1.890625 -9.328125 -1.609375 -11.234375 C -1.335938 -13.140625 -0.757812 -14.96875 0.125 -16.71875 C 0.820312 -18.03125 1.785156 -19.242188 3.015625 -20.359375 C 4.253906 -21.472656 5.546875 -22.347656 6.890625 -22.984375 C 8.554688 -23.828125 10.234375 -24.226562 11.921875 -24.1875 C 13.609375 -24.144531 15.410156 -23.585938 17.328125 -22.515625 C 17.367188 -22.472656 17.390625 -22.515625 17.390625 -22.640625 C 17.390625 -22.828125 17.4375 -23.0625 17.53125 -23.34375 C 17.625 -23.632812 17.785156 -23.863281 18.015625 -24.03125 C 18.648438 -24.488281 19.398438 -24.71875 20.265625 -24.71875 C 21.128906 -24.71875 21.796875 -24.285156 22.265625 -23.421875 C 22.347656 -22.304688 22.226562 -20.882812 21.90625 -19.15625 C 21.207031 -15.363281 21.207031 -12.632812 21.90625 -10.96875 C 22.601562 -9.300781 23.832031 -8.523438 25.59375 -8.640625 C 27.351562 -8.765625 29.632812 -10.503906 32.4375 -13.859375 C 35.238281 -17.222656 36.347656 -18.019531 35.765625 -16.25 Z M 4.640625 -7.328125 C 5.617188 -6.640625 6.734375 -6.738281 7.984375 -7.625 C 9.234375 -8.507812 10.4375 -9.757812 11.59375 -11.375 C 12.757812 -13 13.738281 -14.625 14.53125 -16.25 C 15.320312 -17.875 15.757812 -19.078125 15.84375 -19.859375 C 13.476562 -21.117188 11.453125 -21.332031 9.765625 -20.5 C 8.078125 -19.664062 6.734375 -18.304688 5.734375 -16.421875 C 4.734375 -14.535156 4.140625 -12.703125 3.953125 -10.921875 C 3.765625 -9.140625 3.992188 -7.941406 4.640625 -7.328125 Z M 4.640625 -7.328125 "/></g></g></g><g fill="#2455a1" fill-opacity="1"><g transform="translate(225.579358, 174.979025)"><g><path d="M 22.828125 -14.734375 C 23.179688 -15.597656 23.566406 -16.03125 23.984375 -16.03125 C 24.410156 -16.03125 24.550781 -15.597656 24.40625 -14.734375 C 23.707031 -12.585938 22.875 -10.523438 21.90625 -8.546875 C 20.9375 -6.578125 19.617188 -4.8125 17.953125 -3.25 C 16.691406 -1.988281 15.1875 -1.179688 13.4375 -0.828125 C 11.050781 -0.484375 9.082031 -0.765625 7.53125 -1.671875 C 5.988281 -2.578125 4.765625 -3.878906 3.859375 -5.578125 C 2.953125 -7.273438 2.273438 -9.128906 1.828125 -11.140625 C 1.390625 -13.160156 1.109375 -15.117188 0.984375 -17.015625 C 0.640625 -20.597656 0.390625 -25.304688 0.234375 -31.140625 C 0.078125 -36.984375 0.132812 -43.160156 0.40625 -49.671875 C 0.6875 -56.179688 1.328125 -62.21875 2.328125 -67.78125 C 3.328125 -73.34375 4.796875 -77.65625 6.734375 -80.71875 C 7.847656 -82.21875 9.148438 -82.976562 10.640625 -83 C 12.128906 -83.019531 13.453125 -82.332031 14.609375 -80.9375 C 15.390625 -79.863281 15.976562 -78.722656 16.375 -77.515625 C 16.78125 -76.316406 17.046875 -75.097656 17.171875 -73.859375 C 17.585938 -69.578125 17.53125 -65.054688 17 -60.296875 C 16.476562 -55.546875 15.644531 -50.472656 14.5 -45.078125 C 13.363281 -39.679688 12.003906 -34.925781 10.421875 -30.8125 C 8.847656 -26.707031 7.535156 -23.457031 6.484375 -21.0625 C 5.910156 -20.09375 5.695312 -18.625 5.84375 -16.65625 C 6.039062 -14.53125 6.445312 -12.304688 7.0625 -9.984375 C 7.6875 -7.671875 8.554688 -5.835938 9.671875 -4.484375 C 10.722656 -3.367188 11.898438 -3.019531 13.203125 -3.4375 C 14.515625 -3.863281 15.816406 -4.75 17.109375 -6.09375 C 18.410156 -7.445312 19.554688 -8.921875 20.546875 -10.515625 C 21.535156 -12.109375 22.296875 -13.515625 22.828125 -14.734375 Z M 5.96875 -47.078125 C 5.84375 -45.679688 5.722656 -43.578125 5.609375 -40.765625 C 5.492188 -37.953125 5.382812 -35.09375 5.28125 -32.1875 C 5.195312 -28.9375 5.101562 -26.40625 5 -24.59375 C 6.03125 -26.914062 7.226562 -30.289062 8.59375 -34.71875 C 9.96875 -39.144531 11.21875 -44.359375 12.34375 -50.359375 C 13.46875 -56.367188 14.203125 -62.875 14.546875 -69.875 C 14.359375 -73.957031 13.867188 -76.726562 13.078125 -78.1875 C 12.285156 -79.644531 11.425781 -79.769531 10.5 -78.5625 C 9.570312 -77.363281 8.832031 -74.835938 8.28125 -70.984375 C 7.4375 -64.597656 6.785156 -58.195312 6.328125 -51.78125 C 6.203125 -50.207031 6.082031 -48.640625 5.96875 -47.078125 Z M 5.96875 -47.078125 "/></g></g></g><g fill="#2455a1" fill-opacity="1"><g transform="translate(248.057131, 174.979025)"><g><path d="M 22.828125 -14.734375 C 23.179688 -15.597656 23.566406 -16.03125 23.984375 -16.03125 C 24.410156 -16.03125 24.550781 -15.597656 24.40625 -14.734375 C 23.707031 -12.585938 22.875 -10.523438 21.90625 -8.546875 C 20.9375 -6.578125 19.617188 -4.8125 17.953125 -3.25 C 16.691406 -1.988281 15.1875 -1.179688 13.4375 -0.828125 C 11.050781 -0.484375 9.082031 -0.765625 7.53125 -1.671875 C 5.988281 -2.578125 4.765625 -3.878906 3.859375 -5.578125 C 2.953125 -7.273438 2.273438 -9.128906 1.828125 -11.140625 C 1.390625 -13.160156 1.109375 -15.117188 0.984375 -17.015625 C 0.640625 -20.597656 0.390625 -25.304688 0.234375 -31.140625 C 0.078125 -36.984375 0.132812 -43.160156 0.40625 -49.671875 C 0.6875 -56.179688 1.328125 -62.21875 2.328125 -67.78125 C 3.328125 -73.34375 4.796875 -77.65625 6.734375 -80.71875 C 7.847656 -82.21875 9.148438 -82.976562 10.640625 -83 C 12.128906 -83.019531 13.453125 -82.332031 14.609375 -80.9375 C 15.390625 -79.863281 15.976562 -78.722656 16.375 -77.515625 C 16.78125 -76.316406 17.046875 -75.097656 17.171875 -73.859375 C 17.585938 -69.578125 17.53125 -65.054688 17 -60.296875 C 16.476562 -55.546875 15.644531 -50.472656 14.5 -45.078125 C 13.363281 -39.679688 12.003906 -34.925781 10.421875 -30.8125 C 8.847656 -26.707031 7.535156 -23.457031 6.484375 -21.0625 C 5.910156 -20.09375 5.695312 -18.625 5.84375 -16.65625 C 6.039062 -14.53125 6.445312 -12.304688 7.0625 -9.984375 C 7.6875 -7.671875 8.554688 -5.835938 9.671875 -4.484375 C 10.722656 -3.367188 11.898438 -3.019531 13.203125 -3.4375 C 14.515625 -3.863281 15.816406 -4.75 17.109375 -6.09375 C 18.410156 -7.445312 19.554688 -8.921875 20.546875 -10.515625 C 21.535156 -12.109375 22.296875 -13.515625 22.828125 -14.734375 Z M 5.96875 -47.078125 C 5.84375 -45.679688 5.722656 -43.578125 5.609375 -40.765625 C 5.492188 -37.953125 5.382812 -35.09375 5.28125 -32.1875 C 5.195312 -28.9375 5.101562 -26.40625 5 -24.59375 C 6.03125 -26.914062 7.226562 -30.289062 8.59375 -34.71875 C 9.96875 -39.144531 11.21875 -44.359375 12.34375 -50.359375 C 13.46875 -56.367188 14.203125 -62.875 14.546875 -69.875 C 14.359375 -73.957031 13.867188 -76.726562 13.078125 -78.1875 C 12.285156 -79.644531 11.425781 -79.769531 10.5 -78.5625 C 9.570312 -77.363281 8.832031 -74.835938 8.28125 -70.984375 C 7.4375 -64.597656 6.785156 -58.195312 6.328125 -51.78125 C 6.203125 -50.207031 6.082031 -48.640625 5.96875 -47.078125 Z M 5.96875 -47.078125 "/></g></g></g><g fill="#2455a1" fill-opacity="1"><g transform="translate(270.534905, 174.979025)"><g><path d="M 16.40625 -12.828125 C 15.75 -11.484375 14.632812 -9.988281 13.0625 -8.34375 C 11.5 -6.695312 9.722656 -5.648438 7.734375 -5.203125 C 5.742188 -4.765625 3.84375 -5.453125 2.03125 -7.265625 C 1.332031 -8.066406 0.816406 -8.988281 0.484375 -10.03125 C 0.160156 -11.082031 0.0390625 -12.113281 0.125 -13.125 C 0.125 -13.394531 0.125 -13.742188 0.125 -14.171875 C 0.125 -15.242188 0.171875 -16.484375 0.265625 -17.890625 C 0.359375 -19.304688 0.566406 -20.582031 0.890625 -21.71875 C 1.222656 -22.851562 1.738281 -23.539062 2.4375 -23.78125 C 4.4375 -24.28125 5.519531 -23.582031 5.6875 -21.6875 C 5.6875 -21.070312 5.664062 -20.460938 5.625 -19.859375 C 5.582031 -19.535156 5.5625 -19.238281 5.5625 -18.96875 C 5.519531 -18.082031 5.476562 -17.195312 5.4375 -16.3125 C 5.4375 -15.613281 5.40625 -14.921875 5.34375 -14.234375 C 5.300781 -11.171875 5.984375 -9.347656 7.390625 -8.765625 C 8.804688 -8.191406 10.421875 -8.8125 12.234375 -10.625 C 14.046875 -12.4375 15.226562 -13.941406 15.78125 -15.140625 C 16.34375 -16.347656 16.75 -16.601562 17 -15.90625 C 17.257812 -15.207031 17.0625 -14.179688 16.40625 -12.828125 Z M 5.28125 -30.28125 C 5.007812 -30.050781 4.675781 -29.90625 4.28125 -29.84375 C 3.894531 -29.78125 3.550781 -29.8125 3.25 -29.9375 C 3.019531 -30.125 2.875 -30.367188 2.8125 -30.671875 C 2.75 -30.984375 2.71875 -31.351562 2.71875 -31.78125 C 2.71875 -31.863281 2.738281 -31.945312 2.78125 -32.03125 C 2.820312 -32.40625 2.914062 -32.785156 3.0625 -33.171875 C 3.488281 -34.179688 4.363281 -34.644531 5.6875 -34.5625 C 6.15625 -34.5 6.519531 -34.304688 6.78125 -33.984375 C 7.039062 -33.671875 7.097656 -33.300781 6.953125 -32.875 C 6.640625 -31.84375 6.082031 -30.976562 5.28125 -30.28125 Z M 5.28125 -30.28125 "/></g></g></g><path fill="#f4eae2" d="M 98.746094 206.839844 C 98.746094 206.839844 108.597656 247.179688 154.1875 244.308594 C 154.1875 244.308594 162.714844 239.605469 158.253906 229.679688 C 158.253906 229.679688 156.207031 223.597656 162.683594 219.394531 C 162.683594 219.394531 151.832031 220.867188 153.304688 229.632812 C 153.304688 229.632812 157.128906 235.523438 152.941406 239.40625 C 152.941406 239.40625 116.449219 244.546875 98.746094 206.839844 Z M 98.746094 206.839844 " fill-opacity="1" fill-rule="nonzero"/><path fill="#f4eae2" d="M 112.425781 180.425781 C 112.425781 180.425781 129.285156 173.289062 139.320312 194.132812 C 139.320312 194.132812 150.117188 217.9375 178.652344 216.214844 C 178.652344 216.214844 149.792969 225.933594 135.566406 196.933594 C 135.566406 196.933594 129.203125 178.394531 112.425781 180.425781 Z M 112.425781 180.425781 " fill-opacity="1" fill-rule="nonzero"/><path fill="#f4eae2" d="M 109.480469 149.765625 C 109.480469 149.765625 101.179688 144.136719 92.636719 153.75 C 92.636719 153.75 97.621094 141.796875 109.480469 147.351562 Z M 109.480469 149.765625 " fill-opacity="1" fill-rule="nonzero"/><path fill="#f4eae2" d="M 100.261719 202.5 C 100.261719 202.5 74.117188 219.363281 79.691406 256.761719 L 86.578125 259.554688 C 86.578125 259.558594 74.074219 226.914062 100.261719 202.5 Z M 100.261719 202.5 " fill-opacity="1" fill-rule="nonzero"/><path fill="#f4eae2" d="M 78.023438 199.707031 C 78.023438 199.707031 75.210938 232.746094 57.046875 247.878906 C 57.046875 247.878906 84.71875 242.074219 78.023438 199.707031 Z M 78.023438 199.707031 " fill-opacity="1" fill-rule="nonzero"/><path fill="#f4eae2" d="M 65.5625 246.367188 C 65.5625 246.367188 70.289062 245.609375 76.15625 252.988281 C 76.15625 252.988281 82.304688 263.769531 96.488281 260.835938 C 96.488281 260.835938 87.601562 260.90625 80.484375 250.566406 C 80.484375 250.566406 74.636719 241.519531 65.5625 246.367188 Z M 65.5625 246.367188 " fill-opacity="1" fill-rule="nonzero"/><path fill="#f4eae2" d="M 129.734375 247.945312 C 129.734375 247.945312 118.824219 240.820312 113.972656 252.21875 C 113.972656 252.21875 108.988281 269.574219 95.113281 264.527344 C 95.113281 264.527344 105.199219 265.15625 108.578125 251.519531 C 108.578125 251.519531 110.628906 243.082031 119.140625 243.152344 C 119.140625 243.152344 124.4375 242.140625 129.734375 247.945312 Z M 129.734375 247.945312 " fill-opacity="1" fill-rule="nonzero"/><path fill="#f4eae2" d="M 76.039062 124.632812 C 77.808594 123.25 79.867188 121.4375 82.347656 118.921875 L 82.875 118.398438 C 86.082031 115.226562 90.015625 111.761719 94.03125 109.15625 C 91.003906 105.085938 84.671875 104.09375 79.21875 107.09375 C 73.347656 110.328125 70.773438 116.902344 73.460938 121.78125 C 74.097656 122.941406 74.988281 123.886719 76.039062 124.632812 Z M 76.039062 124.632812 " fill-opacity="1" fill-rule="nonzero"/><path fill="#f4eae2" d="M 99.023438 123.285156 C 99.023438 123.285156 98.660156 121.457031 97.621094 120.09375 L 97.621094 120.085938 C 96.71875 118.914062 95.320312 118.089844 93.238281 119.132812 C 92.882812 119.3125 92.515625 119.53125 92.121094 119.824219 L 86.191406 125.355469 L 83.746094 127.644531 C 83.746094 127.644531 83.515625 127.9375 83.085938 128.40625 C 83.074219 128.417969 83.0625 128.417969 83.0625 128.425781 C 82.800781 128.710938 82.46875 129.054688 82.082031 129.441406 C 78.660156 132.839844 70.390625 139.480469 61.5625 135.097656 C 53.847656 131.273438 55.480469 116.066406 70.726562 116.183594 C 70.726562 116.183594 58.179688 123.597656 64.847656 128.886719 C 70.390625 133.289062 82.636719 122.097656 84.613281 120.15625 C 90.242188 114.59375 101.890625 104.417969 108.183594 108.550781 C 111.699219 110.847656 110.308594 118.832031 99.023438 123.285156 Z M 99.023438 123.285156 " fill-opacity="1" fill-rule="nonzero"/><path fill="#f4eae2" d="M 79.492188 142.429688 C 79.710938 142.261719 80.429688 142.097656 80.621094 141.9375 C 83.589844 139.398438 83.222656 136.792969 82.828125 135.601562 C 83.832031 132.632812 83.210938 129.160156 83.066406 128.425781 C 82.804688 128.710938 82.472656 129.054688 82.085938 129.441406 C 82.292969 128.367188 82.542969 127.59375 82.542969 127.59375 L 85.964844 124.996094 C 86.035156 125.113281 86.121094 125.238281 86.195312 125.355469 C 95.058594 139.300781 80.195312 142.296875 79.492188 142.429688 Z M 79.492188 142.429688 " fill-opacity="1" fill-rule="nonzero"/><path fill="#f4eae2" d="M 107.367188 176.5625 C 101.792969 169.808594 106.019531 163.28125 106.019531 163.28125 C 119.769531 138.414062 102.878906 140.105469 102.878906 140.105469 C 96.59375 140.28125 94.355469 130.457031 94.535156 129.503906 C 94.535156 129.503906 98.832031 125.46875 97.621094 120.09375 L 97.621094 120.082031 C 97.378906 118.960938 96.886719 117.792969 96.074219 116.578125 L 92.957031 118.535156 C 92.957031 118.535156 93.070312 118.753906 93.238281 119.128906 C 94.0625 121.054688 96.25 127.128906 91.972656 130.015625 C 91.972656 130.015625 92.632812 131.832031 92.972656 134.007812 C 94.90625 144.683594 103.339844 143.179688 103.339844 143.179688 C 105.304688 143.742188 106.320312 144.886719 106.707031 146.328125 C 106.898438 147.019531 106.9375 147.792969 106.855469 148.605469 C 106.355469 154.203125 100.457031 161.835938 100.457031 161.835938 C 94.796875 169.261719 101.53125 178.496094 101.53125 178.496094 C 112.742188 194.265625 107.304688 214.445312 106.9375 215.734375 C 119.027344 189.695312 107.367188 176.5625 107.367188 176.5625 Z M 107.367188 176.5625 " fill-opacity="1" fill-rule="nonzero"/><g clip-path="url(#f65fdce205)"><path fill="#f4eae2" d="M 66.746094 180.902344 C 63.476562 177.859375 59.621094 174.566406 60.128906 169.957031 C 60.46875 166.871094 64.542969 162.140625 67.914062 157.65625 C 66.285156 153.601562 65.445312 150.476562 65.636719 147.6875 C 60.429688 155.636719 53.742188 166.296875 53.859375 170.945312 C 54 176.292969 56.746094 182.101562 64.695312 187.226562 C 65.097656 184.707031 66.058594 182.648438 66.746094 180.902344 Z M 66.746094 180.902344 " fill-opacity="1" fill-rule="nonzero"/></g><path fill="#f4eae2" d="M 78.714844 161.839844 C 84.375 169.265625 77.640625 178.496094 77.640625 178.496094 C 66.425781 194.269531 71.863281 214.453125 72.234375 215.738281 C 60.144531 189.699219 71.804688 176.566406 71.804688 176.566406 C 77.390625 169.8125 73.152344 163.285156 73.152344 163.285156 C 59.410156 138.414062 76.292969 140.109375 76.292969 140.109375 C 80.203125 140.007812 82.023438 137.964844 82.828125 135.605469 C 83.832031 132.632812 83.214844 129.164062 83.070312 128.429688 C 83.050781 128.335938 83.039062 128.28125 83.039062 128.28125 C 83.058594 128.324219 83.082031 128.367188 83.089844 128.40625 C 86.636719 136.699219 83.742188 140.335938 80.625 141.9375 C 78.292969 143.132812 75.835938 143.183594 75.835938 143.183594 C 66.386719 145.902344 78.714844 161.839844 78.714844 161.839844 Z M 78.714844 161.839844 " fill-opacity="1" fill-rule="nonzero"/><path fill="#f4eae2" d="M 69.691406 151.609375 C 69.691406 151.609375 77.992188 144.136719 86.535156 153.75 C 86.535156 153.75 81.550781 141.796875 69.691406 147.351562 Z M 69.691406 151.609375 " fill-opacity="1" fill-rule="nonzero"/><path fill="#2455a1" d="M 100.375 206.238281 C 100.375 206.238281 109.601562 244.007812 152.28125 241.320312 C 152.28125 241.320312 160.265625 236.917969 156.085938 227.625 C 156.085938 227.625 154.167969 221.929688 160.234375 217.996094 C 160.234375 217.996094 150.074219 219.371094 151.453125 227.582031 C 151.453125 227.582031 155.035156 233.09375 151.117188 236.730469 C 151.117188 236.730469 116.949219 241.542969 100.375 206.238281 Z M 100.375 206.238281 " fill-opacity="1" fill-rule="nonzero"/><g clip-path="url(#df02c217b0)"><path fill="#2455a1" d="M 113.183594 181.511719 C 113.183594 181.511719 128.964844 174.832031 138.363281 194.347656 C 138.363281 194.347656 148.46875 216.628906 175.1875 215.019531 C 175.1875 215.019531 148.167969 224.117188 134.847656 196.964844 C 134.847656 196.96875 128.890625 179.609375 113.183594 181.511719 Z M 113.183594 181.511719 " fill-opacity="1" fill-rule="nonzero"/></g><path fill="#2455a1" d="M 110.425781 152.808594 C 110.425781 152.808594 102.652344 147.539062 94.65625 156.539062 C 94.65625 156.539062 99.320312 145.347656 110.425781 150.550781 Z M 110.425781 152.808594 " fill-opacity="1" fill-rule="nonzero"/><path fill="#2455a1" d="M 101.792969 202.179688 C 101.792969 202.179688 77.316406 217.964844 82.535156 252.976562 L 88.984375 255.59375 C 88.984375 255.597656 77.277344 225.035156 101.792969 202.179688 Z M 101.792969 202.179688 " fill-opacity="1" fill-rule="nonzero"/><path fill="#2455a1" d="M 80.976562 199.5625 C 80.976562 199.5625 78.339844 230.492188 61.335938 244.664062 C 61.335938 244.664062 87.242188 239.226562 80.976562 199.5625 Z M 80.976562 199.5625 " fill-opacity="1" fill-rule="nonzero"/><path fill="#2455a1" d="M 69.308594 243.246094 C 69.308594 243.246094 73.734375 242.539062 79.226562 249.445312 C 79.226562 249.445312 84.984375 259.539062 98.261719 256.792969 C 98.261719 256.792969 89.941406 256.859375 83.28125 247.179688 C 83.28125 247.179688 77.804688 238.710938 69.308594 243.246094 Z M 69.308594 243.246094 " fill-opacity="1" fill-rule="nonzero"/><path fill="#2455a1" d="M 129.386719 244.722656 C 129.386719 244.722656 119.171875 238.050781 114.628906 248.726562 C 114.628906 248.726562 109.964844 264.972656 96.976562 260.25 C 96.976562 260.25 106.417969 260.835938 109.582031 248.070312 C 109.582031 248.070312 111.503906 240.171875 119.46875 240.238281 C 119.46875 240.238281 124.429688 239.292969 129.386719 244.722656 Z M 129.386719 244.722656 " fill-opacity="1" fill-rule="nonzero"/><path fill="#2455a1" d="M 79.117188 129.277344 C 80.773438 127.984375 82.699219 126.285156 85.023438 123.933594 L 85.515625 123.441406 C 88.519531 120.472656 92.199219 117.230469 95.960938 114.792969 C 93.128906 110.976562 87.199219 110.050781 82.09375 112.859375 C 76.597656 115.886719 74.1875 122.042969 76.703125 126.609375 C 77.300781 127.695312 78.136719 128.578125 79.117188 129.277344 Z M 79.117188 129.277344 " fill-opacity="1" fill-rule="nonzero"/><path fill="#2455a1" d="M 100.636719 128.015625 C 100.636719 128.015625 100.292969 126.304688 99.320312 125.03125 L 99.320312 125.019531 C 98.480469 123.921875 97.167969 123.152344 95.21875 124.128906 C 94.886719 124.296875 94.542969 124.503906 94.171875 124.777344 L 88.621094 129.953125 L 86.332031 132.097656 C 86.332031 132.097656 86.117188 132.371094 85.714844 132.8125 C 85.703125 132.820312 85.695312 132.820312 85.695312 132.832031 C 85.449219 133.09375 85.136719 133.417969 84.773438 133.78125 C 81.570312 136.964844 73.828125 143.179688 65.566406 139.078125 C 58.339844 135.496094 59.871094 121.257812 74.144531 121.367188 C 74.144531 121.367188 62.394531 128.308594 68.640625 133.261719 C 73.828125 137.382812 85.292969 126.90625 87.144531 125.089844 C 92.414062 119.878906 103.320312 110.351562 109.210938 114.222656 C 112.503906 116.375 111.199219 123.847656 100.636719 128.015625 Z M 100.636719 128.015625 " fill-opacity="1" fill-rule="nonzero"/><path fill="#2455a1" d="M 82.351562 145.941406 C 82.554688 145.785156 83.230469 145.628906 83.40625 145.480469 C 86.1875 143.101562 85.84375 140.664062 85.472656 139.546875 C 86.410156 136.765625 85.832031 133.515625 85.695312 132.832031 C 85.453125 133.09375 85.140625 133.417969 84.777344 133.78125 C 84.972656 132.773438 85.207031 132.050781 85.207031 132.050781 L 88.410156 129.621094 C 88.476562 129.730469 88.558594 129.84375 88.625 129.953125 C 96.925781 143.011719 83.007812 145.816406 82.351562 145.941406 Z M 82.351562 145.941406 " fill-opacity="1" fill-rule="nonzero"/><path fill="#2455a1" d="M 108.449219 177.894531 C 103.230469 171.574219 107.183594 165.460938 107.183594 165.460938 C 120.058594 142.179688 104.246094 143.765625 104.246094 143.765625 C 98.359375 143.929688 96.265625 134.730469 96.433594 133.839844 C 96.433594 133.839844 100.453125 130.058594 99.320312 125.027344 L 99.320312 125.019531 C 99.097656 123.96875 98.636719 122.875 97.875 121.738281 L 94.957031 123.570312 C 94.957031 123.570312 95.0625 123.777344 95.21875 124.125 C 95.992188 125.929688 98.039062 131.613281 94.035156 134.316406 C 94.035156 134.316406 94.652344 136.019531 94.972656 138.054688 C 96.78125 148.050781 104.675781 146.644531 104.675781 146.644531 C 106.515625 147.171875 107.464844 148.238281 107.832031 149.589844 C 108.007812 150.238281 108.046875 150.960938 107.96875 151.722656 C 107.5 156.960938 101.976562 164.109375 101.976562 164.109375 C 96.679688 171.0625 102.984375 179.703125 102.984375 179.703125 C 113.476562 194.46875 108.386719 213.359375 108.046875 214.566406 C 119.363281 190.191406 108.449219 177.894531 108.449219 177.894531 Z M 108.449219 177.894531 " fill-opacity="1" fill-rule="nonzero"/><g clip-path="url(#0c3a079b67)"><path fill="#2455a1" d="M 70.417969 181.960938 C 67.355469 179.109375 63.746094 176.027344 64.222656 171.710938 C 64.542969 168.820312 68.355469 164.394531 71.511719 160.195312 C 69.988281 156.398438 69.199219 153.472656 69.378906 150.863281 C 64.503906 158.304688 58.242188 168.285156 58.355469 172.636719 C 58.484375 177.644531 61.054688 183.082031 68.496094 187.882812 C 68.875 185.523438 69.773438 183.59375 70.417969 181.960938 Z M 70.417969 181.960938 " fill-opacity="1" fill-rule="nonzero"/></g><path fill="#2455a1" d="M 81.625 164.113281 C 86.917969 171.0625 80.617188 179.707031 80.617188 179.707031 C 70.117188 194.472656 75.210938 213.367188 75.554688 214.570312 C 64.238281 190.195312 75.152344 177.898438 75.152344 177.898438 C 80.382812 171.574219 76.417969 165.464844 76.417969 165.464844 C 63.550781 142.183594 79.355469 143.769531 79.355469 143.769531 C 83.015625 143.671875 84.71875 141.761719 85.476562 139.550781 C 86.414062 136.769531 85.835938 133.519531 85.699219 132.835938 C 85.679688 132.746094 85.671875 132.695312 85.671875 132.695312 C 85.691406 132.734375 85.710938 132.773438 85.71875 132.8125 C 89.039062 140.578125 86.328125 143.980469 83.410156 145.480469 C 81.226562 146.597656 78.925781 146.644531 78.925781 146.644531 C 70.082031 149.191406 81.625 164.113281 81.625 164.113281 Z M 81.625 164.113281 " fill-opacity="1" fill-rule="nonzero"/><path fill="#2455a1" d="M 73.175781 154.53125 C 73.175781 154.53125 80.949219 147.539062 88.945312 156.539062 C 88.945312 156.539062 84.277344 145.347656 73.175781 150.550781 Z M 73.175781 154.53125 " fill-opacity="1" fill-rule="nonzero"/><path stroke-linecap="butt" transform="matrix(0.75, 0, 0, 0.75, 141.645288, 178.57074)" fill="none" stroke-linejoin="miter" d="M 7.056283 7.06193 L 2.045866 7.06193 L 2.045866 9.942139 L 5.957325 9.942139 L 5.957325 11.43693 L 2.045866 11.43693 L 2.045866 15.999431 L 0.389616 15.999431 L 0.389616 5.567138 L 7.056283 5.567138 Z M 21.650034 15.999431 L 20.900034 13.515056 L 17.446909 13.515056 L 16.712534 15.999431 L 14.978159 15.999431 L 18.233367 5.567138 L 20.134409 5.567138 L 23.384409 15.999431 Z M 17.889617 12.051514 L 20.462534 12.051514 L 19.181284 7.74943 Z M 38.082327 13.140055 C 38.082327 13.619222 38.004202 14.046306 37.842743 14.421306 C 37.676077 14.796306 37.457327 15.114014 37.176077 15.374431 C 36.900035 15.640056 36.566702 15.837972 36.176077 15.978597 C 35.79066 16.114014 35.379202 16.181722 34.941702 16.181722 C 34.452118 16.181722 34.00941 16.098389 33.618785 15.921306 C 33.222952 15.744222 32.88441 15.452556 32.60316 15.046306 L 32.60316 15.999431 L 31.113576 15.999431 L 31.113576 12.59318 L 32.60316 12.59318 C 32.60316 12.93693 32.660451 13.239014 32.780243 13.499431 C 32.900035 13.759847 33.061493 13.978597 33.25941 14.155681 C 33.452118 14.337972 33.681285 14.473389 33.94691 14.567139 C 34.207327 14.660889 34.483368 14.702556 34.775035 14.702556 C 35.269827 14.702556 35.670868 14.587972 35.972952 14.358806 C 36.280243 14.134847 36.431285 13.765056 36.431285 13.265056 C 36.431285 13.004639 36.38441 12.78068 36.29066 12.59318 C 36.19691 12.410889 36.061493 12.244222 35.889618 12.09318 C 35.717743 11.947347 35.504202 11.822347 35.254202 11.712972 C 35.004202 11.603597 34.717743 11.489014 34.400035 11.364014 C 34.019827 11.233805 33.644827 11.09318 33.264618 10.931722 C 32.88441 10.770264 32.545868 10.577555 32.248993 10.34318 C 31.952118 10.108805 31.707326 9.817139 31.525035 9.473389 C 31.337535 9.129639 31.243785 8.697347 31.243785 8.176514 C 31.243785 7.71818 31.327118 7.317138 31.493785 6.973388 C 31.660451 6.629638 31.88441 6.337972 32.16566 6.103597 C 32.44691 5.869222 32.769826 5.692138 33.139618 5.572347 C 33.50941 5.452555 33.905243 5.395263 34.32191 5.395263 C 34.801077 5.395263 35.212535 5.494222 35.556285 5.697347 C 35.900035 5.900472 36.16566 6.166097 36.347952 6.504638 L 36.347952 5.567138 L 37.837535 5.567138 L 37.837535 8.81193 L 36.347952 8.81193 C 36.347952 8.202555 36.191702 7.723388 35.868785 7.379638 C 35.545868 7.035888 35.113577 6.864013 34.566702 6.864013 C 34.087535 6.864013 33.691702 6.973388 33.373993 7.197347 C 33.056285 7.421305 32.894826 7.739013 32.894826 8.145264 C 32.894826 8.348389 32.936493 8.525472 33.019827 8.676514 C 33.10316 8.822347 33.222952 8.952555 33.379202 9.072347 C 33.54066 9.192139 33.738577 9.306722 33.97816 9.410889 C 34.217743 9.515055 34.493785 9.62443 34.806285 9.74943 C 35.202118 9.890055 35.592743 10.046305 35.983368 10.223389 C 36.373993 10.395264 36.722952 10.614014 37.030243 10.869222 C 37.337535 11.12443 37.592743 11.43693 37.79066 11.801514 C 37.988577 12.166097 38.082327 12.608805 38.082327 13.140055 Z M 53.405245 15.999431 L 51.754203 15.999431 L 51.754203 11.43693 L 48.394828 11.43693 L 48.394828 15.999431 L 46.738577 15.999431 L 46.738577 5.567138 L 48.394828 5.567138 L 48.394828 9.942139 L 51.754203 9.942139 L 51.754203 5.567138 L 53.405245 5.567138 Z M 68.051079 15.999431 L 63.04587 15.999431 L 63.04587 14.515056 L 64.691704 14.515056 L 64.691704 7.06193 L 63.04587 7.06193 L 63.04587 5.567138 L 68.051079 5.567138 L 68.051079 7.06193 L 66.347954 7.06193 L 66.347954 14.515056 L 68.051079 14.515056 Z M 76.983371 10.78068 C 76.983371 10.082764 77.056288 9.410889 77.207329 8.759847 C 77.358371 8.108805 77.587538 7.535888 77.905246 7.041097 C 78.217746 6.546305 78.629204 6.145263 79.139621 5.84318 C 79.64483 5.541097 80.259413 5.395263 80.978163 5.395263 C 81.702121 5.395263 82.311496 5.541097 82.821913 5.84318 C 83.33233 6.145263 83.743788 6.546305 84.066705 7.041097 C 84.384413 7.535888 84.618788 8.108805 84.759413 8.759847 C 84.905247 9.410889 84.978163 10.082764 84.978163 10.78068 C 84.978163 11.478597 84.905247 12.150472 84.759413 12.796305 C 84.618788 13.447347 84.389622 14.020264 84.071913 14.525472 C 83.759413 15.030681 83.347955 15.431722 82.837538 15.733806 C 82.33233 16.035889 81.712538 16.181722 80.978163 16.181722 C 80.248996 16.181722 79.629205 16.035889 79.123996 15.733806 C 78.613579 15.431722 78.202121 15.030681 77.884413 14.525472 C 77.566704 14.020264 77.337538 13.447347 77.196913 12.796305 C 77.056288 12.150472 76.983371 11.478597 76.983371 10.78068 Z M 78.639621 10.78068 C 78.639621 11.24943 78.67608 11.71818 78.743788 12.18693 C 78.816705 12.65568 78.941705 13.077555 79.11358 13.447347 C 79.285455 13.817139 79.525038 14.114014 79.827121 14.343181 C 80.123996 14.572347 80.509413 14.686931 80.978163 14.686931 C 81.446913 14.686931 81.83233 14.572347 82.134413 14.343181 C 82.436496 14.114014 82.67608 13.817139 82.847955 13.447347 C 83.01983 13.077555 83.14483 12.65568 83.212538 12.18693 C 83.285455 11.71818 83.321913 11.24943 83.321913 10.78068 C 83.321913 10.31193 83.285455 9.84318 83.212538 9.379639 C 83.14483 8.916097 83.01983 8.49943 82.847955 8.12443 C 82.67608 7.754638 82.431288 7.452555 82.129205 7.223388 C 81.821913 6.994222 81.436496 6.879638 80.978163 6.879638 C 80.217746 6.879638 79.639621 7.223388 79.23858 7.910888 C 78.837538 8.598389 78.639621 9.556722 78.639621 10.78068 Z M 99.754206 15.999431 L 97.837539 15.999431 L 94.743789 8.43693 L 94.743789 15.999431 L 93.087539 15.999431 L 93.087539 5.567138 L 95.165664 5.567138 L 98.097956 12.754639 L 98.097956 5.567138 L 99.754206 5.567138 Z M 130.78025 13.140055 C 130.78025 13.619222 130.702125 14.046306 130.540666 14.421306 C 130.374 14.796306 130.15525 15.114014 129.874 15.374431 C 129.59275 15.640056 129.259416 15.837972 128.873999 15.978597 C 128.488583 16.114014 128.077124 16.181722 127.639624 16.181722 C 127.150041 16.181722 126.707333 16.098389 126.311499 15.921306 C 125.920874 15.744222 125.582333 15.452556 125.301083 15.046306 L 125.301083 15.999431 L 123.811499 15.999431 L 123.811499 12.59318 L 125.301083 12.59318 C 125.301083 12.93693 125.358374 13.239014 125.478166 13.499431 C 125.597958 13.759847 125.759416 13.978597 125.952124 14.155681 C 126.150041 14.337972 126.379208 14.473389 126.639624 14.567139 C 126.900041 14.660889 127.181291 14.702556 127.472958 14.702556 C 127.967749 14.702556 128.368791 14.587972 128.670874 14.358806 C 128.972958 14.134847 129.129208 13.765056 129.129208 13.265056 C 129.129208 13.004639 129.082333 12.78068 128.988583 12.59318 C 128.894833 12.410889 128.759416 12.244222 128.587541 12.09318 C 128.415666 11.947347 128.202124 11.822347 127.952124 11.712972 C 127.702124 11.603597 127.415666 11.489014 127.097958 11.364014 C 126.717749 11.233805 126.342749 11.09318 125.962541 10.931722 C 125.582333 10.770264 125.243791 10.577555 124.946916 10.34318 C 124.650041 10.108805 124.405249 9.817139 124.217749 9.473389 C 124.035457 9.129639 123.941707 8.697347 123.941707 8.176514 C 123.941707 7.71818 124.025041 7.317138 124.191707 6.973388 C 124.358374 6.629638 124.582333 6.337972 124.863583 6.103597 C 125.144833 5.869222 125.467749 5.692138 125.837541 5.572347 C 126.207333 5.452555 126.603166 5.395263 127.014624 5.395263 C 127.498999 5.395263 127.910458 5.494222 128.254208 5.697347 C 128.597958 5.900472 128.858374 6.166097 129.045874 6.504638 L 129.045874 5.567138 L 130.535458 5.567138 L 130.535458 8.81193 L 129.045874 8.81193 C 129.045874 8.202555 128.884416 7.723388 128.561499 7.379638 C 128.243791 7.035888 127.806291 6.864013 127.264624 6.864013 C 126.785458 6.864013 126.389624 6.973388 126.071916 7.197347 C 125.754208 7.421305 125.592749 7.739013 125.592749 8.145264 C 125.592749 8.348389 125.634416 8.525472 125.717749 8.676514 C 125.801083 8.822347 125.920874 8.952555 126.077124 9.072347 C 126.233374 9.192139 126.431291 9.306722 126.676083 9.410889 C 126.915666 9.515055 127.191708 9.62443 127.504208 9.74943 C 127.900041 9.890055 128.290666 10.046305 128.681291 10.223389 C 129.066708 10.395264 129.415666 10.614014 129.728166 10.869222 C 130.035458 11.12443 130.290666 11.43693 130.488583 11.801514 C 130.681291 12.166097 130.78025 12.608805 130.78025 13.140055 Z M 146.478167 9.37443 L 144.999001 9.37443 L 144.999001 7.06193 L 143.59275 7.06193 L 143.59275 14.515056 L 145.249001 14.515056 L 145.249001 15.999431 L 140.290667 15.999431 L 140.290667 14.515056 L 141.941709 14.515056 L 141.941709 7.06193 L 140.514625 7.06193 L 140.514625 9.37443 L 139.045875 9.37443 L 139.045875 5.567138 L 146.478167 5.567138 Z M 154.233376 10.78068 C 154.233376 10.082764 154.306293 9.410889 154.457334 8.759847 C 154.603168 8.108805 154.837543 7.535888 155.150043 7.041097 C 155.462543 6.546305 155.87921 6.145263 156.384418 5.84318 C 156.894835 5.541097 157.509418 5.395263 158.228168 5.395263 C 158.946918 5.395263 159.561501 5.541097 160.071918 5.84318 C 160.577127 6.145263 160.993793 6.546305 161.311502 7.041097 C 161.634418 7.535888 161.863585 8.108805 162.009418 8.759847 C 162.150043 9.410889 162.22296 10.082764 162.22296 10.78068 C 162.22296 11.478597 162.150043 12.150472 162.009418 12.796305 C 161.863585 13.447347 161.634418 14.020264 161.321918 14.525472 C 161.009418 15.030681 160.592752 15.431722 160.087543 15.733806 C 159.577126 16.035889 158.957335 16.181722 158.228168 16.181722 C 157.499001 16.181722 156.87921 16.035889 156.368793 15.733806 C 155.858376 15.431722 155.446918 15.030681 155.12921 14.525472 C 154.811501 14.020264 154.582334 13.447347 154.441709 12.796305 C 154.301084 12.150472 154.233376 11.478597 154.233376 10.78068 Z M 155.884418 10.78068 C 155.884418 11.24943 155.920876 11.71818 155.993793 12.18693 C 156.06671 12.65568 156.186501 13.077555 156.363585 13.447347 C 156.53546 13.817139 156.769835 14.114014 157.071918 14.343181 C 157.374001 14.572347 157.759418 14.686931 158.228168 14.686931 C 158.696918 14.686931 159.082335 14.572347 159.384418 14.343181 C 159.686501 14.114014 159.920877 13.817139 160.092752 13.447347 C 160.269835 13.077555 160.389627 12.65568 160.462543 12.18693 C 160.53546 11.71818 160.571918 11.24943 160.571918 10.78068 C 160.571918 10.31193 160.53546 9.84318 160.462543 9.379639 C 160.389627 8.916097 160.269835 8.49943 160.092752 8.12443 C 159.920877 7.754638 159.681293 7.452555 159.374001 7.223388 C 159.06671 6.994222 158.686501 6.879638 158.228168 6.879638 C 157.467751 6.879638 156.884418 7.223388 156.483376 7.910888 C 156.087543 8.598389 155.884418 9.556722 155.884418 10.78068 Z M 177.540669 15.999431 L 175.441711 15.999431 L 172.743794 11.78068 L 171.988586 11.78068 L 171.988586 15.999431 L 170.337544 15.999431 L 170.337544 5.567138 L 173.775044 5.567138 C 174.920877 5.567138 175.811503 5.832763 176.441711 6.358805 C 177.077128 6.879638 177.394836 7.65568 177.394836 8.68693 C 177.394836 9.145264 177.321919 9.546305 177.181294 9.895264 C 177.040669 10.244222 176.842753 10.546305 176.582336 10.796305 C 176.327128 11.046305 176.025044 11.244222 175.681294 11.390055 C 175.337544 11.535889 174.962544 11.640055 174.566711 11.692139 Z M 175.738586 8.660889 C 175.738586 8.129639 175.566711 7.728597 175.217753 7.462972 C 174.868794 7.197347 174.384419 7.06193 173.775044 7.06193 L 171.988586 7.06193 L 171.988586 10.285889 L 173.775044 10.285889 C 174.384419 10.285889 174.868794 10.150472 175.217753 9.884847 C 175.566711 9.619222 175.738586 9.212972 175.738586 8.660889 Z M 192.452129 15.999431 L 185.785462 15.999431 L 185.785462 5.567138 L 192.452129 5.567138 L 192.452129 7.06193 L 187.441712 7.06193 L 187.441712 9.942139 L 191.347962 9.942139 L 191.347962 11.43693 L 187.441712 11.43693 L 187.441712 14.515056 L 192.452129 14.515056 Z M 192.452129 15.999431 " stroke="#f4eae2" stroke-width="0.859913" stroke-opacity="1" stroke-miterlimit="4"/><g fill="#2455a1" fill-opacity="1"><g transform="translate(141.645288, 190.570739)"><g><path d="M 5.296875 -6.703125 L 1.53125 -6.703125 L 1.53125 -4.546875 L 4.46875 -4.546875 L 4.46875 -3.421875 L 1.53125 -3.421875 L 1.53125 0 L 0.296875 0 L 0.296875 -7.828125 L 5.296875 -7.828125 Z M 5.296875 -6.703125 "/></g></g></g><g fill="#2455a1" fill-opacity="1"><g transform="translate(153.232426, 190.570739)"><g><path d="M 4.65625 0 L 4.09375 -1.859375 L 1.5 -1.859375 L 0.953125 0 L -0.359375 0 L 2.09375 -7.828125 L 3.515625 -7.828125 L 5.953125 0 Z M 1.828125 -2.96875 L 3.765625 -2.96875 L 2.796875 -6.1875 Z M 1.828125 -2.96875 "/></g></g></g><g fill="#2455a1" fill-opacity="1"><g transform="translate(164.819564, 190.570739)"><g><path d="M 5.390625 -2.140625 C 5.390625 -1.785156 5.328125 -1.46875 5.203125 -1.1875 C 5.085938 -0.90625 4.921875 -0.664062 4.703125 -0.46875 C 4.492188 -0.269531 4.242188 -0.117188 3.953125 -0.015625 C 3.671875 0.0859375 3.363281 0.140625 3.03125 0.140625 C 2.664062 0.140625 2.332031 0.0703125 2.03125 -0.0625 C 1.738281 -0.195312 1.488281 -0.414062 1.28125 -0.71875 L 1.28125 0 L 0.15625 0 L 0.15625 -2.546875 L 1.28125 -2.546875 C 1.28125 -2.296875 1.320312 -2.070312 1.40625 -1.875 C 1.5 -1.675781 1.617188 -1.507812 1.765625 -1.375 C 1.910156 -1.25 2.082031 -1.148438 2.28125 -1.078125 C 2.476562 -1.003906 2.6875 -0.96875 2.90625 -0.96875 C 3.28125 -0.96875 3.582031 -1.050781 3.8125 -1.21875 C 4.039062 -1.394531 4.15625 -1.671875 4.15625 -2.046875 C 4.15625 -2.242188 4.117188 -2.410156 4.046875 -2.546875 C 3.972656 -2.691406 3.867188 -2.816406 3.734375 -2.921875 C 3.609375 -3.035156 3.453125 -3.132812 3.265625 -3.21875 C 3.078125 -3.300781 2.863281 -3.390625 2.625 -3.484375 C 2.34375 -3.578125 2.054688 -3.679688 1.765625 -3.796875 C 1.484375 -3.921875 1.226562 -4.070312 1 -4.25 C 0.78125 -4.425781 0.601562 -4.640625 0.46875 -4.890625 C 0.332031 -5.148438 0.265625 -5.476562 0.265625 -5.875 C 0.265625 -6.21875 0.328125 -6.515625 0.453125 -6.765625 C 0.578125 -7.023438 0.742188 -7.242188 0.953125 -7.421875 C 1.160156 -7.597656 1.398438 -7.726562 1.671875 -7.8125 C 1.953125 -7.90625 2.25 -7.953125 2.5625 -7.953125 C 2.925781 -7.953125 3.234375 -7.875 3.484375 -7.71875 C 3.742188 -7.570312 3.945312 -7.375 4.09375 -7.125 L 4.09375 -7.828125 L 5.203125 -7.828125 L 5.203125 -5.390625 L 4.09375 -5.390625 C 4.09375 -5.847656 3.96875 -6.207031 3.71875 -6.46875 C 3.476562 -6.726562 3.15625 -6.859375 2.75 -6.859375 C 2.394531 -6.859375 2.097656 -6.769531 1.859375 -6.59375 C 1.617188 -6.425781 1.5 -6.191406 1.5 -5.890625 C 1.5 -5.734375 1.53125 -5.597656 1.59375 -5.484375 C 1.65625 -5.378906 1.742188 -5.28125 1.859375 -5.1875 C 1.972656 -5.101562 2.117188 -5.019531 2.296875 -4.9375 C 2.484375 -4.863281 2.695312 -4.78125 2.9375 -4.6875 C 3.226562 -4.582031 3.519531 -4.460938 3.8125 -4.328125 C 4.101562 -4.203125 4.363281 -4.039062 4.59375 -3.84375 C 4.832031 -3.65625 5.023438 -3.421875 5.171875 -3.140625 C 5.316406 -2.867188 5.390625 -2.535156 5.390625 -2.140625 Z M 5.390625 -2.140625 "/></g></g></g><g fill="#2455a1" fill-opacity="1"><g transform="translate(176.406703, 190.570739)"><g><path d="M 5.296875 0 L 4.046875 0 L 4.046875 -3.421875 L 1.53125 -3.421875 L 1.53125 0 L 0.296875 0 L 0.296875 -7.828125 L 1.53125 -7.828125 L 1.53125 -4.546875 L 4.046875 -4.546875 L 4.046875 -7.828125 L 5.296875 -7.828125 Z M 5.296875 0 "/></g></g></g><g fill="#2455a1" fill-opacity="1"><g transform="translate(187.99384, 190.570739)"><g><path d="M 4.6875 0 L 0.9375 0 L 0.9375 -1.109375 L 2.171875 -1.109375 L 2.171875 -6.703125 L 0.9375 -6.703125 L 0.9375 -7.828125 L 4.6875 -7.828125 L 4.6875 -6.703125 L 3.40625 -6.703125 L 3.40625 -1.109375 L 4.6875 -1.109375 Z M 4.6875 0 "/></g></g></g><g fill="#2455a1" fill-opacity="1"><g transform="translate(199.580976, 190.570739)"><g><path d="M -0.203125 -3.921875 C -0.203125 -4.441406 -0.144531 -4.945312 -0.03125 -5.4375 C 0.0820312 -5.925781 0.253906 -6.351562 0.484375 -6.71875 C 0.722656 -7.09375 1.03125 -7.390625 1.40625 -7.609375 C 1.789062 -7.835938 2.253906 -7.953125 2.796875 -7.953125 C 3.335938 -7.953125 3.796875 -7.835938 4.171875 -7.609375 C 4.554688 -7.390625 4.867188 -7.09375 5.109375 -6.71875 C 5.347656 -6.351562 5.519531 -5.925781 5.625 -5.4375 C 5.738281 -4.945312 5.796875 -4.441406 5.796875 -3.921875 C 5.796875 -3.390625 5.738281 -2.878906 5.625 -2.390625 C 5.519531 -1.910156 5.347656 -1.484375 5.109375 -1.109375 C 4.878906 -0.734375 4.570312 -0.429688 4.1875 -0.203125 C 3.8125 0.0234375 3.347656 0.140625 2.796875 0.140625 C 2.253906 0.140625 1.789062 0.0234375 1.40625 -0.203125 C 1.019531 -0.429688 0.707031 -0.734375 0.46875 -1.109375 C 0.238281 -1.484375 0.0703125 -1.910156 -0.03125 -2.390625 C -0.144531 -2.878906 -0.203125 -3.390625 -0.203125 -3.921875 Z M 1.046875 -3.921875 C 1.046875 -3.566406 1.070312 -3.210938 1.125 -2.859375 C 1.175781 -2.503906 1.265625 -2.1875 1.390625 -1.90625 C 1.523438 -1.632812 1.703125 -1.410156 1.921875 -1.234375 C 2.148438 -1.066406 2.441406 -0.984375 2.796875 -0.984375 C 3.148438 -0.984375 3.4375 -1.066406 3.65625 -1.234375 C 3.882812 -1.410156 4.0625 -1.632812 4.1875 -1.90625 C 4.320312 -2.1875 4.414062 -2.503906 4.46875 -2.859375 C 4.53125 -3.210938 4.5625 -3.566406 4.5625 -3.921875 C 4.5625 -4.265625 4.53125 -4.609375 4.46875 -4.953125 C 4.414062 -5.304688 4.320312 -5.625 4.1875 -5.90625 C 4.0625 -6.1875 3.882812 -6.410156 3.65625 -6.578125 C 3.425781 -6.753906 3.140625 -6.84375 2.796875 -6.84375 C 2.222656 -6.84375 1.785156 -6.582031 1.484375 -6.0625 C 1.191406 -5.550781 1.046875 -4.835938 1.046875 -3.921875 Z M 1.046875 -3.921875 "/></g></g></g><g fill="#2455a1" fill-opacity="1"><g transform="translate(211.168112, 190.570739)"><g><path d="M 5.296875 0 L 3.859375 0 L 1.53125 -5.671875 L 1.53125 0 L 0.296875 0 L 0.296875 -7.828125 L 1.859375 -7.828125 L 4.046875 -2.4375 L 4.046875 -7.828125 L 5.296875 -7.828125 Z M 5.296875 0 "/></g></g></g><g fill="#2455a1" fill-opacity="1"><g transform="translate(222.755249, 190.570739)"><g/></g></g><g fill="#2455a1" fill-opacity="1"><g transform="translate(234.342385, 190.570739)"><g><path d="M 5.390625 -2.140625 C 5.390625 -1.785156 5.328125 -1.46875 5.203125 -1.1875 C 5.085938 -0.90625 4.921875 -0.664062 4.703125 -0.46875 C 4.492188 -0.269531 4.242188 -0.117188 3.953125 -0.015625 C 3.671875 0.0859375 3.363281 0.140625 3.03125 0.140625 C 2.664062 0.140625 2.332031 0.0703125 2.03125 -0.0625 C 1.738281 -0.195312 1.488281 -0.414062 1.28125 -0.71875 L 1.28125 0 L 0.15625 0 L 0.15625 -2.546875 L 1.28125 -2.546875 C 1.28125 -2.296875 1.320312 -2.070312 1.40625 -1.875 C 1.5 -1.675781 1.617188 -1.507812 1.765625 -1.375 C 1.910156 -1.25 2.082031 -1.148438 2.28125 -1.078125 C 2.476562 -1.003906 2.6875 -0.96875 2.90625 -0.96875 C 3.28125 -0.96875 3.582031 -1.050781 3.8125 -1.21875 C 4.039062 -1.394531 4.15625 -1.671875 4.15625 -2.046875 C 4.15625 -2.242188 4.117188 -2.410156 4.046875 -2.546875 C 3.972656 -2.691406 3.867188 -2.816406 3.734375 -2.921875 C 3.609375 -3.035156 3.453125 -3.132812 3.265625 -3.21875 C 3.078125 -3.300781 2.863281 -3.390625 2.625 -3.484375 C 2.34375 -3.578125 2.054688 -3.679688 1.765625 -3.796875 C 1.484375 -3.921875 1.226562 -4.070312 1 -4.25 C 0.78125 -4.425781 0.601562 -4.640625 0.46875 -4.890625 C 0.332031 -5.148438 0.265625 -5.476562 0.265625 -5.875 C 0.265625 -6.21875 0.328125 -6.515625 0.453125 -6.765625 C 0.578125 -7.023438 0.742188 -7.242188 0.953125 -7.421875 C 1.160156 -7.597656 1.398438 -7.726562 1.671875 -7.8125 C 1.953125 -7.90625 2.25 -7.953125 2.5625 -7.953125 C 2.925781 -7.953125 3.234375 -7.875 3.484375 -7.71875 C 3.742188 -7.570312 3.945312 -7.375 4.09375 -7.125 L 4.09375 -7.828125 L 5.203125 -7.828125 L 5.203125 -5.390625 L 4.09375 -5.390625 C 4.09375 -5.847656 3.96875 -6.207031 3.71875 -6.46875 C 3.476562 -6.726562 3.15625 -6.859375 2.75 -6.859375 C 2.394531 -6.859375 2.097656 -6.769531 1.859375 -6.59375 C 1.617188 -6.425781 1.5 -6.191406 1.5 -5.890625 C 1.5 -5.734375 1.53125 -5.597656 1.59375 -5.484375 C 1.65625 -5.378906 1.742188 -5.28125 1.859375 -5.1875 C 1.972656 -5.101562 2.117188 -5.019531 2.296875 -4.9375 C 2.484375 -4.863281 2.695312 -4.78125 2.9375 -4.6875 C 3.226562 -4.582031 3.519531 -4.460938 3.8125 -4.328125 C 4.101562 -4.203125 4.363281 -4.039062 4.59375 -3.84375 C 4.832031 -3.65625 5.023438 -3.421875 5.171875 -3.140625 C 5.316406 -2.867188 5.390625 -2.535156 5.390625 -2.140625 Z M 5.390625 -2.140625 "/></g></g></g><g fill="#2455a1" fill-opacity="1"><g transform="translate(245.929522, 190.570739)"><g><path d="M 5.578125 -4.96875 L 4.46875 -4.96875 L 4.46875 -6.703125 L 3.40625 -6.703125 L 3.40625 -1.109375 L 4.65625 -1.109375 L 4.65625 0 L 0.9375 0 L 0.9375 -1.109375 L 2.171875 -1.109375 L 2.171875 -6.703125 L 1.109375 -6.703125 L 1.109375 -4.96875 L 0 -4.96875 L 0 -7.828125 L 5.578125 -7.828125 Z M 5.578125 -4.96875 "/></g></g></g><g fill="#2455a1" fill-opacity="1"><g transform="translate(257.516664, 190.570739)"><g><path d="M -0.203125 -3.921875 C -0.203125 -4.441406 -0.144531 -4.945312 -0.03125 -5.4375 C 0.0820312 -5.925781 0.253906 -6.351562 0.484375 -6.71875 C 0.722656 -7.09375 1.03125 -7.390625 1.40625 -7.609375 C 1.789062 -7.835938 2.253906 -7.953125 2.796875 -7.953125 C 3.335938 -7.953125 3.796875 -7.835938 4.171875 -7.609375 C 4.554688 -7.390625 4.867188 -7.09375 5.109375 -6.71875 C 5.347656 -6.351562 5.519531 -5.925781 5.625 -5.4375 C 5.738281 -4.945312 5.796875 -4.441406 5.796875 -3.921875 C 5.796875 -3.390625 5.738281 -2.878906 5.625 -2.390625 C 5.519531 -1.910156 5.347656 -1.484375 5.109375 -1.109375 C 4.878906 -0.734375 4.570312 -0.429688 4.1875 -0.203125 C 3.8125 0.0234375 3.347656 0.140625 2.796875 0.140625 C 2.253906 0.140625 1.789062 0.0234375 1.40625 -0.203125 C 1.019531 -0.429688 0.707031 -0.734375 0.46875 -1.109375 C 0.238281 -1.484375 0.0703125 -1.910156 -0.03125 -2.390625 C -0.144531 -2.878906 -0.203125 -3.390625 -0.203125 -3.921875 Z M 1.046875 -3.921875 C 1.046875 -3.566406 1.070312 -3.210938 1.125 -2.859375 C 1.175781 -2.503906 1.265625 -2.1875 1.390625 -1.90625 C 1.523438 -1.632812 1.703125 -1.410156 1.921875 -1.234375 C 2.148438 -1.066406 2.441406 -0.984375 2.796875 -0.984375 C 3.148438 -0.984375 3.4375 -1.066406 3.65625 -1.234375 C 3.882812 -1.410156 4.0625 -1.632812 4.1875 -1.90625 C 4.320312 -2.1875 4.414062 -2.503906 4.46875 -2.859375 C 4.53125 -3.210938 4.5625 -3.566406 4.5625 -3.921875 C 4.5625 -4.265625 4.53125 -4.609375 4.46875 -4.953125 C 4.414062 -5.304688 4.320312 -5.625 4.1875 -5.90625 C 4.0625 -6.1875 3.882812 -6.410156 3.65625 -6.578125 C 3.425781 -6.753906 3.140625 -6.84375 2.796875 -6.84375 C 2.222656 -6.84375 1.785156 -6.582031 1.484375 -6.0625 C 1.191406 -5.550781 1.046875 -4.835938 1.046875 -3.921875 Z M 1.046875 -3.921875 "/></g></g></g><g fill="#2455a1" fill-opacity="1"><g transform="translate(269.103806, 190.570739)"><g><path d="M 5.703125 0 L 4.125 0 L 2.09375 -3.171875 L 1.53125 -3.171875 L 1.53125 0 L 0.296875 0 L 0.296875 -7.828125 L 2.875 -7.828125 C 3.726562 -7.828125 4.394531 -7.628906 4.875 -7.234375 C 5.351562 -6.835938 5.59375 -6.253906 5.59375 -5.484375 C 5.59375 -5.140625 5.535156 -4.835938 5.421875 -4.578125 C 5.316406 -4.316406 5.164062 -4.09375 4.96875 -3.90625 C 4.78125 -3.71875 4.554688 -3.566406 4.296875 -3.453125 C 4.046875 -3.347656 3.769531 -3.273438 3.46875 -3.234375 Z M 4.34375 -5.5 C 4.34375 -5.90625 4.210938 -6.207031 3.953125 -6.40625 C 3.691406 -6.601562 3.332031 -6.703125 2.875 -6.703125 L 1.53125 -6.703125 L 1.53125 -4.28125 L 2.875 -4.28125 C 3.332031 -4.28125 3.691406 -4.378906 3.953125 -4.578125 C 4.210938 -4.785156 4.34375 -5.09375 4.34375 -5.5 Z M 4.34375 -5.5 "/></g></g></g><g fill="#2455a1" fill-opacity="1"><g transform="translate(280.690948, 190.570739)"><g><path d="M 5.296875 0 L 0.296875 0 L 0.296875 -7.828125 L 5.296875 -7.828125 L 5.296875 -6.703125 L 1.53125 -6.703125 L 1.53125 -4.546875 L 4.46875 -4.546875 L 4.46875 -3.421875 L 1.53125 -3.421875 L 1.53125 -1.109375 L 5.296875 -1.109375 Z M 5.296875 0 "/></g></g></g></svg>